<?xml version="1.0" encoding="utf-8"?>
<!-- Generator: Adobe Illustrator 26.5.0, SVG Export Plug-In . SVG Version: 6.00 Build 0)  -->
<svg version="1.1" id="Calque_1" xmlns="http://www.w3.org/2000/svg" xmlns:xlink="http://www.w3.org/1999/xlink" x="0px" y="0px"
	 viewBox="0 0 1842 1122.9" style="enable-background:new 0 0 1842 1122.9;" xml:space="preserve">
<style type="text/css">
	.st0{fill:#64B5F6;}
	.st1{fill:#1565C0;}
	.st2{fill:#E0E0E0;}
	.st3{fill:#B5B5B5;}
	.st4{fill:#2E68AA;}
	.st5{fill:#046587;}
	.st6{opacity:0.22;}
	.st7{fill:#3F85D5;}
</style>
<g>
	<g id="You_are_not_allowed_to_see_this_page__dark">
		<g id="Composant_563_1" transform="translate(58 592)">
			<g>
				<g id="Groupe_1596">
					<path id="Trace_2682" class="st0" d="M1783.3,0v530.9H-58V4.6c26.8,6.3,51.7,18.6,73.1,36c60.9-41,143.5-24.8,184.5,36
						c5.5,8.2,10.1,17.1,13.7,26.3c0.1,0,0.2,0,0.3,0c27.6,0,54.1,11.2,73.4,31c17.5-10.3,37.5-15.7,57.8-15.7
						c60.8,0,110,47,110,105c0,3.3-0.2,6.6-0.5,9.8c14.1,8,26.2,19,35.4,32.4c56.5-26.6,123.9-2.3,150.4,54.3
						c0.7,1.5,1.4,3.1,2.1,4.7c25.7-6.9,53.2-1.2,74,15.4c40.5-57.2,119.8-70.8,177-30.3c9.8,6.9,18.5,15.2,26,24.6
						c33.5-43.5,95.2-53.4,140.5-22.4c32.4-27.5,78-33.2,116.2-14.6c10.6-37.1,40.2-65.7,77.7-74.8c2.7-54.8,49.3-98.6,107.1-100
						c17.6-47.1,70-71.1,117.2-53.5c1.2,0.4,2.3,0.9,3.4,1.4c55.2-47,132-59.3,199.2-32C1710.1,15.2,1746,1.8,1783.3,0"/>
					<path id="Trace_2683" class="st1" d="M598.3,530.9H-58V237.1c88.6-14.5,258.4-11.7,390.1,174.9
						C332.1,412,500.5,442.8,598.3,530.9"/>
					<path id="Trace_2684" class="st1" d="M1783.3,139.1v391.8H1248c55.8-127.9,251.5-159.1,251.5-159.1
						C1523.6,181.6,1706.2,145.7,1783.3,139.1"/>
				</g>
			</g>
		</g>
		<g id="Composant_555_1" transform="translate(200.456 170)">
			<g id="Groupe_1603" transform="translate(251.223) rotate(30)">
				<g>
					<g id="Groupe_1602">
						<path id="Trace_2697" class="st2" d="M102.1,466.5c0,25.3-35.4,64.9-35.4,64.9s-35.4-39.6-35.4-64.9
							c0-25.3,15.9-45.8,35.4-45.8S102.1,441.2,102.1,466.5"/>
						<path id="Trace_2698" class="st3" d="M92,460.1c0,18.1-25.4,46.5-25.4,46.5s-25.4-28.3-25.4-46.5s11.4-32.8,25.4-32.8
							S92,441.9,92,460.1"/>
						
							<rect id="Rectangle_1687" x="49.1" y="394.3" transform="matrix(2.729302e-06 1 -1 2.729302e-06 492.2606 358.5963)" class="st0" width="35.5" height="62.3"/>
						<path id="Trace_2699" class="st0" d="M31.5,373.4c-9.3-25.2-14.8-61.1-18-98.7c-78.1,41-66.5,138.1-56.7,182h4.2
							c14.8-0.1,27.7-9.9,31.8-24.1c8.6-29.5,33.1-53.8,38.8-59.2L31.5,373.4z"/>
						<path id="Trace_2700" class="st0" d="M101.6,373.4c9.3-25.2,14.8-61.1,18-98.7c78.1,41,66.5,138.1,56.7,182h-4.2
							c-14.8-0.1-27.8-9.9-31.8-24.1c-8.6-29.5-33.1-53.8-38.8-59.2L101.6,373.4z"/>
						<path id="Trace_2701" class="st2" d="M103.7,421.6c28.6-29,48.3-90.4,48.3-161.5C152,86.4,66.6,29,66.6,29
							s-85.4,64.1-85.4,231.1c0,71.1,19.7,132.5,48.3,161.5H103.7z"/>
						<path id="Trace_2702" class="st3" d="M66.6,29c0,0-6.5,4.9-16,15.5c21.3,19.4,77.3,83.8,77.3,224.5
							c0,64.5-16.2,121-40.5,152.6h16.3c28.6-29,48.3-90.4,48.3-161.5C152,86.4,66.6,29,66.6,29"/>
						<path id="Trace_2703" class="st0" d="M132.5,130.5C107.3,56.4,66.6,29,66.6,29S27,58.8,1.7,130.5L132.5,130.5z"/>
						<path id="Trace_2704" class="st0" d="M68,172.3c-26.7,0-48.4,21.7-48.4,48.4c0,26.7,21.7,48.4,48.4,48.4s48.4-21.7,48.4-48.4
							l0,0C116.4,194,94.7,172.3,68,172.3L68,172.3 M68,259.4c-21.4,0-38.7-17.3-38.7-38.7s17.3-38.7,38.7-38.7s38.7,17.3,38.7,38.7
							c0,0,0,0,0,0C106.7,242.1,89.4,259.4,68,259.4C68,259.4,68,259.4,68,259.4"/>
						<path id="Trace_2705" class="st0" d="M97.5,220.7c0,16.3-13.2,29.5-29.5,29.5c-16.3,0-29.5-13.2-29.5-29.5
							c0-16.3,13.2-29.5,29.5-29.5C84.3,191.2,97.5,204.4,97.5,220.7L97.5,220.7"/>
					</g>
				</g>
			</g>
		</g>
		<g id="Groupe_1609" transform="translate(1401 202)">
			<g>
				<g id="Groupe_1608">
					<path id="Trace_2717" class="st0" d="M139.4,98.7c0,54.5-44.2,98.7-98.7,98.7S-58,153.2-58,98.7S-13.8,0,40.7,0c0,0,0,0,0,0
						C95.2,0,139.4,44.2,139.4,98.7"/>
					<path id="Trace_2718" class="st4" d="M61.3,2.1c36.1,40.9,32.1,103.3-8.8,139.4C29,162.2-2.8,170.5-33.3,164
						c36.1,40.9,98.5,44.8,139.3,8.7s44.8-98.5,8.7-139.3C100.7,17.5,82,6.6,61.3,2.1"/>
					<path id="Trace_2719" class="st1" d="M39.6,79.2c0,5-4.1,9-9,9s-9-4.1-9-9c0-5,4.1-9,9-9C35.6,70.2,39.6,74.3,39.6,79.2"/>
					<path id="Trace_2720" class="st1" d="M35.2,143.6c0,6.7-5.5,12.2-12.2,12.2c-6.7,0-12.2-5.5-12.2-12.2
						c0-6.7,5.5-12.2,12.2-12.2S35.2,136.8,35.2,143.6C35.2,143.6,35.2,143.6,35.2,143.6"/>
					<path id="Trace_2721" class="st1" d="M103.8,75.4c0,7.3-5.9,13.2-13.2,13.2c-7.3,0-13.2-5.9-13.2-13.2s5.9-13.2,13.2-13.2
						S103.8,68.1,103.8,75.4L103.8,75.4"/>
					<path id="Trace_2722" class="st1" d="M95.8,150.1c0,7-5.7,12.8-12.8,12.8s-12.8-5.7-12.8-12.8c0-7,5.7-12.8,12.8-12.8
						C90.1,137.4,95.8,143.1,95.8,150.1L95.8,150.1"/>
					<path id="Trace_2723" class="st1" d="M-17.1,99.3c0,7.4-6,13.4-13.4,13.4s-13.4-6-13.4-13.4s6-13.4,13.4-13.4h0
						C-23.2,85.8-17.1,91.8-17.1,99.3"/>
					<path id="Trace_2724" class="st1" d="M41.5,34.8c0,4.5-3.7,8.2-8.2,8.2s-8.2-3.7-8.2-8.2c0-4.5,3.7-8.2,8.2-8.2c0,0,0,0,0,0
						C37.9,26.6,41.5,30.3,41.5,34.8"/>
				</g>
			</g>
		</g>
		<g id="Groupe_1613" transform="translate(151.55 183.751)">
			<g>
				<g id="Groupe_1612" transform="translate(0 0)">
					<path id="Trace_2729" class="st0" d="M69.3,34.1c6.5,24.5-8.1,49.5-32.6,56c-24.5,6.5-49.5-8.1-56-32.6
						c-6.5-24.5,8.1-49.5,32.5-56C37.8-4.9,62.9,9.6,69.3,34.1C69.3,34.1,69.3,34.1,69.3,34.1"/>
					<path id="Trace_2730" class="st5" d="M70.4,39.1c0.4,2.4,0.5,4.7,0.5,7.1c-13.6,5.3-27.5,9.8-41.7,13.5
						c-14.4,3.9-29,6.9-43.8,9c-1.2-2.1-2.2-4.2-3.1-6.4c15.2-2.3,30.2-5.5,45-9.5C42,49.1,56.3,44.5,70.4,39.1"/>
					<path id="Trace_2731" class="st4" d="M23.7,0c18.9,12.1,24.4,37.1,12.3,56C25.7,72.2,5.4,78.9-12.5,72
						C2,92.8,30.5,97.9,51.3,83.4s25.8-43,11.4-63.8C53.8,6.9,39.2-0.4,23.7,0"/>
					<path id="Trace_2732" class="st1" d="M61.7,18.3c1,1.4,2,2.8,2.9,4.3c18.4-2.8,30.8-2.8,31.7,0.7c0.9,3.4-9.3,9.4-25.9,15.8
						c-14.1,5.3-28.4,9.9-43,13.7c-14.8,4-29.9,7.2-45,9.5c-17.1,2.5-28.6,2.3-29.4-1.1c-0.9-3.4,9.5-9.5,26.3-16
						c0-1.7,0.1-3.4,0.3-5.1c-23.9,9.4-39.1,19.1-37.5,25.1c1.6,5.9,18.8,6.9,43.3,3.5c14.8-2.1,29.4-5.1,43.8-9
						c14.1-3.7,28-8.2,41.7-13.5c23.5-9.3,38.4-18.8,36.8-24.8C106,15.3,87.6,14.5,61.7,18.3"/>
				</g>
			</g>
		</g>
		<g id="Composant_561_1" transform="translate(1661 368.193)">
			<g>
				<g id="Groupe_1619">
					<g id="Groupe_1618">
						<g>
							<g id="Groupe_1617">
								<g id="Groupe_1616" class="st6">
									<g id="Groupe_1615">
										<g>
											<g id="Groupe_1614">
												<path id="Trace_2733" class="st7" d="M44.9,58.2c-1.6,1.6-4.2,1.6-5.8,0c-1.6-1.6-1.6-4.2,0-5.8l22.6-21.6
													c1.7-1.6,1.7-4.3,0.1-6c-1.6-1.7-4.3-1.7-6-0.1l0,0L33.6,46c-1.6,1.6-4.2,1.6-5.8,0c-1.6-1.6-1.6-4.2,0-5.8L61.5,7.4
													c1.8-1.6,1.9-4.3,0.3-6.1S57.5-0.6,55.7,1c-0.1,0.1-0.1,0.1-0.2,0.2L-51.7,108.1c-8.3,8.3-8.4,21.7-0.3,30.2
													c8.4,8.7,22.5,8.5,31.1,0L87.4,30c1.8-1.8,1.9-4.8,0-6.6c-1.8-1.8-4.8-1.9-6.6,0l0,0L44.9,58.2z"/>
											</g>
										</g>
									</g>
								</g>
								<path id="Trace_2734" class="st0" d="M-21.2,108.1c8.4,8.4,8.4,22.1,0,30.5s-22.1,8.4-30.5,0c-8.4-8.4-8.4-22.1,0-30.5
									c0,0,0,0,0,0C-43.3,99.7-29.6,99.7-21.2,108.1C-21.2,108.1-21.2,108.1-21.2,108.1"/>
								<path id="Trace_2735" class="st1" d="M-21.2,108.1c-6.7-6.7-17-8.2-25.4-3.8c11.4,3.5,17.8,15.5,14.3,26.9
									c-1.7,5.5-5.4,10-10.4,12.7c11.4,3.5,23.4-2.9,26.9-14.3C-13.5,122-15.6,113.8-21.2,108.1"/>
							</g>
						</g>
					</g>
				</g>
			</g>
		</g>
		<path id="Trace_2746" class="st1" d="M1670,199.3l0.2,20.3l-20.3-0.2l19.3,6.1l-6.4,19.2l11.7-16.5l16.3,12.1l-12.1-16.3
			l16.5-11.7l-19.2,6.4L1670,199.3z"/>
	</g>
</g>
</svg>
