<svg id="Slack_picto" data-name="Slack picto" xmlns="http://www.w3.org/2000/svg" width="88" height="60" viewBox="0 0 23.961 24" fill="#D9D9D9">
  <path id="Tracé_2794" data-name="Tracé 2794" d="M5.132,68.722A2.516,2.516,0,1,1,2.616,66.2H5.132Z" transform="translate(-0.081 -53.55)"/>
  <path id="Tracé_2795" data-name="Tracé 2795" d="M33.1,68.722a2.516,2.516,0,1,1,5.032,0v6.306a2.516,2.516,0,1,1-5.032,0Z" transform="translate(-26.791 -53.55)"/>
  <path id="Tracé_2796" data-name="Tracé 2796" d="M35.616,5.045a2.522,2.522,0,1,1,2.516-2.522V5.045Z" transform="translate(-26.791 0)"/>
  <path id="Tracé_2797" data-name="Tracé 2797" d="M8.825,33.1a2.522,2.522,0,0,1,0,5.045H2.516a2.522,2.522,0,0,1,0-5.045Z" transform="translate(0 -26.775)"/>
  <path id="Tracé_2798" data-name="Tracé 2798" d="M99.2,35.622a2.516,2.516,0,1,1,2.516,2.522H99.2Z" transform="translate(-80.291 -26.775)"/>
  <path id="Tracé_2799" data-name="Tracé 2799" d="M71.232,8.847a2.516,2.516,0,1,1-5.032,0V2.522a2.516,2.516,0,1,1,5.032,0Z" transform="translate(-53.581 0)"/>
  <path id="Tracé_2800" data-name="Tracé 2800" d="M68.716,99.2a2.522,2.522,0,1,1-2.516,2.522V99.2Z" transform="translate(-53.581 -80.245)"/>
  <path id="Tracé_2801" data-name="Tracé 2801" d="M68.716,71.245a2.522,2.522,0,0,1,0-5.045h6.309a2.522,2.522,0,0,1,0,5.045Z" transform="translate(-53.581 -53.55)"/>
</svg>
