<?xml version="1.0" encoding="utf-8"?>
<!-- Generator: Adobe Illustrator 26.3.1, SVG Export Plug-In . SVG Version: 6.00 Build 0)  -->
<svg version="1.1" id="Centreon_Logo_Noir_RVB_1_" xmlns="http://www.w3.org/2000/svg" xmlns:xlink="http://www.w3.org/1999/xlink"
	 x="0px" y="0px" viewBox="0 0 513.5 84.8" style="enable-background:new 0 0 513.5 84.8;" xml:space="preserve">
<g id="Groupe_1595">
	<path id="Tracé_2669" d="M0,42.4c0,1.3,0.5,2.6,1.5,3.5l29.1,26.4c0,0,0,0,0,0v0l0,0v0c7.9,8,18.7,12.4,30,12.4v0v0
		c9.9,0,19.4-3.4,27-9.7c2-1.7,1.7-3.9-0.2-5.8L76.8,58.6c-1.6-1.5-4.2-1.7-5.9-0.3v0c-3.1,2-6.6,3-10.3,3v0v0c-5,0-9.8-2-13.4-5.5
		l0,0c-3.6-3.5-5.5-8.4-5.5-13.4l0,0h0c0-10.5,8.5-18.9,18.9-19c0,0,0,0,0,0v0v0c3.6,0,7.2,1,10.3,3v0c1.8,1.4,4.3,1.2,5.9-0.3
		l10.6-10.6c1.9-1.9,2.2-4.2,0.2-5.9C80,3.4,70.5,0,60.6,0v0v0c-11.2,0-22,4.4-30,12.4L1.5,38.9C0.5,39.8,0,41.1,0,42.4L0,42.4z"/>
	<path id="Tracé_2670" d="M165.5,51c-2.3,3.8-6,6.9-11.1,6.9c-0.1,0-0.1,0-0.2,0c-8.3-0.1-12.8-6.6-12.8-14.8
		c0-8.4,4.4-14.8,12.8-14.8h0.1c5.3,0,8.8,3,11,6.8l8.2-6.2c-4-6.7-11.4-10.7-19.3-10.5c-14.6,0-24.4,10.4-24.4,24.7
		c0,14.2,9.8,24.7,24.4,24.7c0,0,0.1,0,0.1,0c7.9,0.2,15.2-3.8,19.4-10.5L165.5,51z"/>
	<path id="Tracé_2671" d="M268.2,66.9h11.4l0-27c0-11.9-9.6-21.5-21.5-21.5c-4.6,0-9.1,1.5-12.8,4.2c-2.1-2.7-5.3-4.2-8.7-4.2V39
		c0,0.3,0,0.6,0,0.8h0v27h11.3V39.8c0-5.6,4.6-10.1,10.2-10.1c5.5,0,10,4.5,10.1,10h0L268.2,66.9L268.2,66.9z"/>
	<path id="Tracé_2672" d="M315.9,56.1c-2,1.1-4.2,1.6-6.5,1.5c-4.4,0-7.5-2.8-7.5-7.6V30.6h11.3V19.3h-11.6l0.1-0.1
		c0-6.2-5-11.3-11.3-11.3v31.9l0-0.1v10.3c0,11.5,6.9,17.8,17.8,17.8c3.7,0.1,7.4-0.9,10.6-2.8L315.9,56.1z"/>
	<path id="Tracé_2673" d="M337.5,23.7c-2-3.3-5.6-5.3-9.5-5.3v32l0.1-0.1v16.7h11.3V43.1h0c0-7.4,6-13.4,13.4-13.4V18.4
		C347.2,18.4,341.9,20.2,337.5,23.7"/>
	<path id="Tracé_2674" d="M191,38.5c0.4-6.6,4.9-11,11.6-11c6.8,0,10.6,4.5,10.9,11H191z M224.6,46.6v-4c0-13.3-7.2-24.3-21.8-24.3
		c-13.7,0-23.3,10.5-23.3,24.8c0,1.1,0.1,2.3,0.2,3.4c1.4,12.5,10.4,21.3,24,21.3c0,0,0.1,0,0.1,0c8.7,0,14.9-2.9,19.6-8.6l-7.8-6.4
		c-2.2,3-6.2,5.5-11.8,5.5c-7.9,0-12.5-4.2-12.8-11.7L224.6,46.6L224.6,46.6z"/>
	<path id="Tracé_2675" d="M369.4,38.5c0.4-6.6,4.9-11,11.6-11c6.8,0,10.6,4.5,10.9,11H369.4z M403,46.6v-4
		c0-13.3-7.2-24.3-21.8-24.3c-13.7,0-23.3,10.5-23.3,24.8c0,1.1,0.1,2.3,0.2,3.4c1.4,12.5,10.4,21.3,24,21.3c0,0,0.1,0,0.1,0
		c8.7,0,14.9-2.9,19.6-8.6l-7.8-6.4c-2.2,3-6.2,5.5-11.8,5.5c-7.9,0-12.5-4.2-12.7-11.7L403,46.6L403,46.6z"/>
	<path id="Tracé_2676" d="M502,66.9h11.4l0-27c0-11.9-9.6-21.5-21.5-21.5c-4.6,0-9.1,1.5-12.8,4.2c-2.1-2.7-5.3-4.2-8.7-4.2v48.5
		h11.3V39.8c0-5.6,4.6-10.1,10.2-10.1c5.5,0,10,4.5,10.1,10h0L502,66.9L502,66.9z"/>
	<path id="Tracé_2677" d="M460.9,40.4c0-0.2-0.1-0.4-0.1-0.6c-0.1-0.7-0.2-1.3-0.3-2c0-0.2-0.1-0.3-0.1-0.5c-0.2-0.7-0.3-1.3-0.5-2
		c0-0.1-0.1-0.2-0.1-0.3c-0.2-0.7-0.5-1.4-0.8-2c0-0.1-0.1-0.1-0.1-0.1c-0.3-0.7-0.6-1.4-1-2.1c0,0,0,0,0,0
		c-4.4-7.9-12.7-12.8-21.7-12.8h0c-9,0-17.4,4.9-21.8,12.8c0,0,0,0,0,0c-0.4,0.7-0.7,1.4-1,2.1c0,0-0.1,0.1-0.1,0.1
		c-0.3,0.7-0.5,1.3-0.8,2c0,0.1-0.1,0.2-0.1,0.3c-0.2,0.6-0.4,1.3-0.5,2c-0.1,0.2-0.1,0.3-0.1,0.5c-0.1,0.6-0.2,1.3-0.3,2
		c0,0.2-0.1,0.4-0.1,0.6c-0.2,1.7-0.2,3.4,0,5.1c0.2,1.6,0.5,3.3,1,4.9c0.2,0.8,0.5,1.5,0.8,2.3c3.9,9.2,12.9,15.2,23,15.2h0
		c13.7,0,24.9-11.1,24.9-24.8c0,0,0-0.1,0-0.1C461,42.1,461,41.3,460.9,40.4 M436.1,58.2c-8.4,0-15.2-6.8-15.2-15.2
		s6.8-15.2,15.2-15.2c8.4,0,15.2,6.8,15.2,15.2c0,0,0,0,0,0C451.3,51.4,444.5,58.2,436.1,58.2"/>
</g>
</svg>
