<?xml version="1.0" encoding="UTF-8"?><svg id="Calque_2" xmlns="http://www.w3.org/2000/svg" viewBox="0 0 216.4 252.1"><g id="Calque_1-2"><path d="m126.05,252.1c-3.21,0-6.43-.12-9.66-.37-33.55-2.59-64.14-18.2-86.12-43.96C8.3,182.01-2.3,149.37.42,115.86,3.16,82.13,18.91,51.53,44.77,29.72,70.64,7.9,103.44-2.48,137.14.5l1.01.09c7.13.69,13.72,4.34,18.09,10.03,4.38,5.7,6.22,13.04,5.04,20.13l-.12.71c-2.22,13.4-14.64,22.91-28.3,21.63-.62-.06-1.24-.11-1.87-.15-18.95-1.29-37.46,4.8-52.11,17.16-14.66,12.36-23.8,29.57-25.73,48.46-2.02,19.68,3.81,38.91,16.39,54.15,12.59,15.24,30.37,24.6,50.06,26.34,23.21,2.05,45.47-6.74,61.05-24.11,1.95-2.18,2.82-4.98,2.44-7.9-.38-2.92-2.01-5.52-4.47-7.14-4.13-2.71-9.65-2.06-12.83,1.51-2.35,2.63-4.98,5.05-7.83,7.2-9.4,7.07-20.61,10.52-31.78,10.52-14.6,0-29.13-5.89-39.47-17.29-9.84-10.84-14.71-24.83-13.71-39.4,1-14.58,7.71-27.77,18.91-37.15,9.38-7.85,21.26-12.26,33.47-12.41,4.87-.04,8.84,3.83,8.9,8.69.06,4.86-3.83,8.84-8.69,8.9-8.28.1-16.03,2.97-22.4,8.31-7.49,6.28-11.99,15.11-12.66,24.86-.67,9.75,2.6,19.12,9.19,26.38,12.21,13.45,33.15,15.44,47.66,4.53,1.92-1.45,3.7-3.08,5.27-4.84,8.94-10.03,24.25-11.97,35.61-4.51,6.75,4.43,11.21,11.56,12.26,19.57,1.04,7.96-1.44,15.95-6.79,21.91-17.47,19.48-41.71,30.25-67.48,30.25-2.73,0-5.46-.12-8.22-.36-24.42-2.16-46.46-13.75-62.07-32.66-15.61-18.9-22.83-42.74-20.33-67.14,2.4-23.46,13.73-44.81,31.89-60.12,18.17-15.31,41.13-22.86,64.65-21.26.77.05,1.54.11,2.3.19,4.58.43,8.58-2.58,9.31-6.99l.12-.71c.39-2.34-.19-4.66-1.64-6.54-1.43-1.86-3.5-3.01-5.83-3.24l-.87-.08c-29-2.56-57.23,6.37-79.48,25.14-22.25,18.77-35.81,45.1-38.16,74.13-2.34,28.82,6.78,56.89,25.7,79.06,18.93,22.18,45.24,35.62,74.1,37.84,30.91,2.38,61.43-8.63,83.75-30.22,3.49-3.38,9.06-3.28,12.43.21,3.38,3.49,3.28,9.06-.21,12.43-23.6,22.83-55.11,35.48-87.67,35.48Z" fill="#fff"/></g></svg>