<?xml version="1.0" encoding="UTF-8"?>
<svg data-name="Calque 1" xmlns="http://www.w3.org/2000/svg" xmlns:xlink="http://www.w3.org/1999/xlink" version="1.1" viewBox="0 0 424 82">
  <defs>
    <style>
      .cls-1 {
        fill: #b5b5b5;
      }
      .cls-1, .cls-2, .cls-3 {
        stroke-width: 0px;
      }
      .cls-2 {
        fill: none;
      }
      .cls-3 {
        fill: #666;
      }
    </style>
  </defs>
  <g id="Groupe_3562" data-name="Groupe 3562">
    <path id="BKG" class="cls-3" d="M8,0h408c4.4,0,8,3.6,8,8v74H0V8C0,3.6,3.6,0,8,0Z"/>
    <g id="single">
      <path class="cls-1" d="M43.9,39.2h0c0-2.6.8-5,2.4-7l4.6,3.8c-.7.9-1.1,1.9-1.1,3.1h-6Z"/>
      <path class="cls-1" d="M81.3,39.3c-.2-3.4-1.2-6.7-2.9-9.6-4.4-8.2-15.5-11.8-24.8-8.1-7,2.9-11.5,9.8-11.5,17.4h-4c0-9.2,5.5-17.5,14-21.1,11.2-4.5,24.5-.1,29.9,9.8,1.9,3.4,3.1,7.3,3.4,11.3l-4,.3Z"/>
      <g id="Rectangle_2116" data-name="Rectangle 2116">
        <rect class="cls-2" x="22.5" y="9" width="80" height="40" rx="8" ry="8"/>
        <path class="cls-1" d="M94.5,49H30.5c-4.4,0-8-3.6-8-8v-24c0-4.4,3.6-8,8-8h64c4.4,0,8,3.6,8,8v24c0,4.4-3.6,8-8,8ZM30.5,10c-3.9,0-7,3.1-7,7v24c0,3.9,3.1,7,7,7h64c3.9,0,7-3.1,7-7v-24c0-3.9-3.1-7-7-7H30.5Z"/>
      </g>
    </g>
    <g id="Graph">
      <path id="Rectangle_2002" data-name="Rectangle 2002" class="cls-1" d="M148.5,25.8h0c2.2,0,4,1.8,4,4v12c0,2.2-1.8,4-4,4h0c-2.2,0-4-1.8-4-4v-12c0-2.2,1.8-4,4-4Z"/>
      <path id="Rectangle_2003" data-name="Rectangle 2003" class="cls-1" d="M157.5,15.8h0c2.2,0,4,1.8,4,4v22c0,2.2-1.8,4-4,4h0c-2.2,0-4-1.8-4-4v-22c0-2.2,1.8-4,4-4Z"/>
      <path id="Rectangle_2004" data-name="Rectangle 2004" class="cls-1" d="M167.5,19.2h0c2.2,0,4,1.8,4,4v18.6c0,2.2-1.8,4-4,4h0c-2.2,0-4-1.8-4-4v-18.6c0-2.2,1.8-4,4-4Z"/>
      <path id="Rectangle_2005" data-name="Rectangle 2005" class="cls-1" d="M177.5,12.2h0c2.2,0,4,1.8,4,4v25.6c0,2.2-1.8,4-4,4h0c-2.2,0-4-1.8-4-4v-25.6c0-2.2,1.8-4,4-4Z"/>
      <g id="Rectangle_2116-2" data-name="Rectangle 2116-2">
        <rect class="cls-2" x="122.5" y="9" width="80" height="40" rx="8" ry="8"/>
        <path class="cls-1" d="M194.5,49h-64c-4.4,0-8-3.6-8-8v-24c0-4.4,3.6-8,8-8h64c4.4,0,8,3.6,8,8v24c0,4.4-3.6,8-8,8ZM130.5,10c-3.9,0-7,3.1-7,7v24c0,3.9,3.1,7,7,7h64c3.9,0,7-3.1,7-7v-24c0-3.9-3.1-7-7-7h-64Z"/>
      </g>
    </g>
    <g id="curve">
      <g id="Rectangle_2116-3" data-name="Rectangle 2116-3">
        <rect class="cls-2" x="222.5" y="9" width="80" height="40" rx="8" ry="8"/>
        <path class="cls-1" d="M294.5,49h-64c-4.4,0-8-3.6-8-8v-24c0-4.4,3.6-8,8-8h64c4.4,0,8,3.6,8,8v24c0,4.4-3.6,8-8,8ZM230.5,10c-3.9,0-7,3.1-7,7v24c0,3.9,3.1,7,7,7h64c3.9,0,7-3.1,7-7v-24c0-3.9-3.1-7-7-7h-64Z"/>
      </g>
      <path id="Tracé_4129" data-name="Tracé 4129" class="cls-1" d="M267.3,44c0,0-.1,0-.2,0-1.8-.2-2.6-2.7-3.1-4.6-.6-2.7-1.1-5.5-1.4-8.3-.3-2.4-.7-4.7-1.1-6.5-.6-2.5-1-2.6-1-2.6-.2,0-.6.2-1.1,1.8-.5,1.7-.9,3.3-1.3,5-1,4.7-2.1,9.6-4.9,9.6s-3.1-2.8-3.9-5.7c-.9-3.2-2-6.8-4.9-8.7-.4-.3-.5-.8-.3-1.2.2-.4.6-.6,1-.4,0,0,0,0,.1,0,3.4,2.2,4.7,6.4,5.7,9.7.8,2.7,1.4,4.4,2.4,4.4,1.6,0,2.6-4.7,3.3-8.2.9-4.3,1.7-8,3.8-8.2,1.7-.2,2.3,2.6,2.6,3.6.5,1.9.8,4.4,1.2,7.1.3,2.7.8,5.4,1.4,8,.7,2.9,1.4,3.3,1.7,3.3s.7-.6,1.1-2.4c.4-1.9.7-4.7,1-7.7.3-3.9.8-7.7,1.6-11.5.9-4.3,2.3-7.1,4.1-8.6.3-.3.8-.2,1,.1,0,0,0,0,0,.1.3.4.2,1-.2,1.3-3.4,2.7-4.2,11.6-5,18.8-.3,3-.6,5.9-1,8-.2,1.1-.8,3.8-2.6,3.8Z"/>
    </g>
    <g id="Clock">
      <g class="cls-4">
        <g id="Groupe_4244" data-name="Groupe 4244">
          <path id="Tracé_4415" data-name="Tracé 4415" class="cls-1" d="M367.2,35.5l1.8-1.8-4.8-4.8v-5.9h-2.6v7l5.6,5.6ZM363,42.4c-1.7,0-3.5-.3-5-1-3.1-1.3-5.6-3.8-6.9-6.9-.7-1.6-1-3.3-1-5,0-1.7.3-3.4,1-5,1.3-3.1,3.8-5.6,6.9-6.9,1.6-.7,3.3-1,5-1,1.7,0,3.4.3,5,1,3.1,1.3,5.6,3.8,6.9,6.9.7,1.6,1,3.3,1,5,0,1.7-.3,3.4-1,5-1.3,3.1-3.8,5.6-6.9,6.9-1.6.7-3.3,1-5,1M363,39.8c2.8,0,5.4-1,7.3-3,2-1.9,3.1-4.6,3-7.3,0-2.8-1-5.4-3-7.3-1.9-2-4.6-3.1-7.3-3-2.8,0-5.4,1-7.3,3-2,1.9-3.1,4.6-3,7.3,0,2.8,1,5.4,3,7.3,1.9,2,4.6,3.1,7.3,3"/>
        </g>
      </g>
      <g id="Rectangle_2116-4" data-name="Rectangle 2116-4">
        <rect class="cls-2" x="322.5" y="9" width="80" height="40" rx="8" ry="8"/>
        <path class="cls-1" d="M394.5,49h-64c-4.4,0-8-3.6-8-8v-24c0-4.4,3.6-8,8-8h64c4.4,0,8,3.6,8,8v24c0,4.4-3.6,8-8,8ZM330.5,10c-3.9,0-7,3.1-7,7v24c0,3.9,3.1,7,7,7h64c3.9,0,7-3.1,7-7v-24c0-3.9-3.1-7-7-7h-64Z"/>
      </g>
    </g>
    <g id="Clock-2">
      <g id="Rectangle_2116-5" data-name="Rectangle 2116-5">
        <rect class="cls-2" x="121.5" y="57" width="281" height="19" rx="8" ry="8"/>
        <path class="cls-1" d="M394.5,76H129.5c-4.4,0-8-3.6-8-8v-3c0-4.4,3.6-8,8-8h265c4.4,0,8,3.6,8,8v3c0,4.4-3.6,8-8,8ZM129.5,58c-3.9,0-7,3.1-7,7v3c0,3.9,3.1,7,7,7h265c3.9,0,7-3.1,7-7v-3c0-3.9-3.1-7-7-7H129.5Z"/>
      </g>
    </g>
    <g id="Clock-3">
      <g id="Rectangle_2116-6" data-name="Rectangle 2116-6">
        <rect class="cls-2" x="22.5" y="57" width="80" height="19" rx="8" ry="8"/>
        <path class="cls-1" d="M94.5,76H30.5c-4.4,0-8-3.6-8-8v-3c0-4.4,3.6-8,8-8h64c4.4,0,8,3.6,8,8v3c0,4.4-3.6,8-8,8ZM30.5,58c-3.9,0-7,3.1-7,7v3c0,3.9,3.1,7,7,7h64c3.9,0,7-3.1,7-7v-3c0-3.9-3.1-7-7-7H30.5Z"/>
      </g>
    </g>
  </g>
</svg>
