<?xml version="1.0" encoding="UTF-8"?><svg id="Calque_1" xmlns="http://www.w3.org/2000/svg" xmlns:xlink="http://www.w3.org/1999/xlink" viewBox="0 0 424 82"><defs><style>.cls-1{clip-path:url(#clippath);}.cls-2{fill:none;}.cls-2,.cls-3,.cls-4{stroke-width:0px;}.cls-3{fill:#e3e3e3;}.cls-4{fill:#999;}</style><clipPath id="clippath"><rect class="cls-2" x="347.46" y="13.99" width="31" height="31"/></clipPath></defs><g id="Groupe_3562"><path id="BKG" class="cls-4" d="M8,0h408c4.42,0,8,3.58,8,8v74H0V8C0,3.58,3.58,0,8,0Z"/><g id="single"><path class="cls-3" d="M43.88,39.2v-.02c-.03-2.56.83-5.02,2.44-6.97l4.64,3.81c-.71.86-1.09,1.95-1.07,3.06l-6,.13Z"/><path class="cls-3" d="M81.27,39.34c-.23-3.37-1.24-6.7-2.91-9.64-4.42-8.23-15.55-11.83-24.85-8.06-6.99,2.93-11.53,9.75-11.53,17.36h-4c0-9.22,5.5-17.49,14.01-21.06,11.15-4.52,24.54-.1,29.87,9.83,1.94,3.41,3.12,7.34,3.39,11.3l-3.99.27Z"/><g id="Rectangle_2116"><rect class="cls-2" x="22.46" y="8.99" width="80" height="40" rx="8" ry="8"/><path class="cls-3" d="M94.46,48.99H30.46c-4.41,0-8-3.59-8-8v-24c0-4.41,3.59-8,8-8h64c4.41,0,8,3.59,8,8v24c0,4.41-3.59,8-8,8ZM30.46,9.99c-3.86,0-7,3.14-7,7v24c0,3.86,3.14,7,7,7h64c3.86,0,7-3.14,7-7v-24c0-3.86-3.14-7-7-7H30.46Z"/></g></g><g id="Graph"><path id="Rectangle_2002" class="cls-3" d="M148.46,25.8h0c2.21,0,4,1.79,4,4v12c0,2.21-1.79,4-4,4h0c-2.21,0-4-1.79-4-4v-12c0-2.21,1.79-4,4-4Z"/><path id="Rectangle_2003" class="cls-3" d="M157.46,15.8h0c2.21,0,4,1.79,4,4v22c0,2.21-1.79,4-4,4h0c-2.21,0-4-1.79-4-4v-22c0-2.21,1.79-4,4-4Z"/><path id="Rectangle_2004" class="cls-3" d="M167.46,19.18h0c2.21,0,4,1.79,4,4v18.62c0,2.21-1.79,4-4,4h0c-2.21,0-4-1.79-4-4v-18.62c0-2.21,1.79-4,4-4Z"/><path id="Rectangle_2005" class="cls-3" d="M177.46,12.18h0c2.21,0,4,1.79,4,4v25.62c0,2.21-1.79,4-4,4h0c-2.21,0-4-1.79-4-4v-25.62c0-2.21,1.79-4,4-4Z"/><g id="Rectangle_2116-2"><rect class="cls-2" x="122.46" y="8.99" width="80" height="40" rx="8" ry="8"/><path class="cls-3" d="M194.46,48.99h-64c-4.41,0-8-3.59-8-8v-24c0-4.41,3.59-8,8-8h64c4.41,0,8,3.59,8,8v24c0,4.41-3.59,8-8,8ZM130.46,9.99c-3.86,0-7,3.14-7,7v24c0,3.86,3.14,7,7,7h64c3.86,0,7-3.14,7-7v-24c0-3.86-3.14-7-7-7h-64Z"/></g></g><g id="curve"><g id="Rectangle_2116-3"><rect class="cls-2" x="222.46" y="8.99" width="80" height="40" rx="8" ry="8"/><path class="cls-3" d="M294.46,48.99h-64c-4.41,0-8-3.59-8-8v-24c0-4.41,3.59-8,8-8h64c4.41,0,8,3.59,8,8v24c0,4.41-3.59,8-8,8ZM230.46,9.99c-3.86,0-7,3.14-7,7v24c0,3.86,3.14,7,7,7h64c3.86,0,7-3.14,7-7v-24c0-3.86-3.14-7-7-7h-64Z"/></g><path id="Tracé_4129" class="cls-3" d="M267.34,43.99c-.06,0-.11,0-.17,0-1.76-.17-2.61-2.73-3.1-4.64-.62-2.73-1.09-5.48-1.43-8.26-.34-2.44-.66-4.74-1.07-6.51-.56-2.46-1.02-2.64-1.02-2.64-.15.02-.57.23-1.14,1.84-.52,1.65-.94,3.33-1.27,5.03-1.02,4.72-2.08,9.6-4.88,9.6-2.24,0-3.06-2.76-3.92-5.67-.95-3.2-2.03-6.84-4.92-8.71-.39-.29-.52-.81-.31-1.25.15-.38.59-.57.97-.41.04.02.08.04.12.06,3.43,2.21,4.66,6.37,5.65,9.71.81,2.75,1.37,4.43,2.41,4.43,1.56,0,2.59-4.75,3.34-8.21.94-4.32,1.75-8.05,3.82-8.25,1.68-.16,2.35,2.58,2.6,3.62.47,1.9.82,4.41,1.19,7.07.33,2.7.79,5.38,1.38,8.03.75,2.92,1.44,3.3,1.7,3.33s.69-.6,1.09-2.44c.42-1.94.7-4.75.99-7.72.31-3.87.84-7.72,1.57-11.52.94-4.31,2.27-7.11,4.06-8.56.31-.25.77-.21,1.03.11.03.04.06.08.08.12.25.42.17.96-.2,1.28-3.36,2.73-4.24,11.64-4.96,18.8-.3,3.03-.59,5.89-1.03,7.95-.23,1.06-.82,3.83-2.59,3.83Z"/></g><g id="Clock"><g class="cls-1"><g id="Groupe_4244"><path id="Tracé_4415" class="cls-3" d="M367.25,35.55l1.81-1.81-4.78-4.78v-5.95h-2.59v6.98l5.56,5.56ZM362.98,42.4c-1.73.01-3.45-.33-5.05-1.02-3.1-1.31-5.56-3.77-6.87-6.87-.68-1.59-1.03-3.31-1.02-5.04-.01-1.73.34-3.45,1.02-5.04,1.31-3.1,3.77-5.56,6.87-6.87,1.59-.68,3.31-1.03,5.04-1.02,1.73-.01,3.45.34,5.04,1.02,3.1,1.31,5.56,3.77,6.87,6.87.68,1.59,1.03,3.31,1.02,5.04.01,1.73-.34,3.45-1.02,5.04-1.31,3.1-3.77,5.56-6.87,6.87-1.59.68-3.31,1.03-5.04,1.02M362.98,39.82c2.75.05,5.4-1.05,7.32-3.02,1.97-1.92,3.07-4.57,3.02-7.32.05-2.75-1.05-5.4-3.02-7.32-1.92-1.97-4.57-3.07-7.32-3.02-2.75-.05-5.4,1.05-7.32,3.02-1.97,1.92-3.07,4.57-3.02,7.32-.05,2.75,1.05,5.4,3.02,7.32,1.92,1.97,4.57,3.07,7.32,3.02"/></g></g><g id="Rectangle_2116-4"><rect class="cls-2" x="322.46" y="8.99" width="80" height="40" rx="8" ry="8"/><path class="cls-3" d="M394.46,48.99h-64c-4.41,0-8-3.59-8-8v-24c0-4.41,3.59-8,8-8h64c4.41,0,8,3.59,8,8v24c0,4.41-3.59,8-8,8ZM330.46,9.99c-3.86,0-7,3.14-7,7v24c0,3.86,3.14,7,7,7h64c3.86,0,7-3.14,7-7v-24c0-3.86-3.14-7-7-7h-64Z"/></g></g><g id="Clock-2"><g id="Rectangle_2116-5"><rect class="cls-2" x="121.46" y="56.99" width="281" height="19" rx="8" ry="8"/><path class="cls-3" d="M394.46,75.99H129.46c-4.41,0-8-3.59-8-8v-3c0-4.41,3.59-8,8-8h265c4.41,0,8,3.59,8,8v3c0,4.41-3.59,8-8,8ZM129.46,57.99c-3.86,0-7,3.14-7,7v3c0,3.86,3.14,7,7,7h265c3.86,0,7-3.14,7-7v-3c0-3.86-3.14-7-7-7H129.46Z"/></g></g><g id="Clock-3"><g id="Rectangle_2116-6"><rect class="cls-2" x="22.46" y="56.99" width="80" height="19" rx="8" ry="8"/><path class="cls-3" d="M94.46,75.99H30.46c-4.41,0-8-3.59-8-8v-3c0-4.41,3.59-8,8-8h64c4.41,0,8,3.59,8,8v3c0,4.41-3.59,8-8,8ZM30.46,57.99c-3.86,0-7,3.14-7,7v3c0,3.86,3.14,7,7,7h64c3.86,0,7-3.14,7-7v-3c0-3.86-3.14-7-7-7H30.46Z"/></g></g></g></svg>