<?xml version="1.0" encoding="UTF-8"?><svg id="Calque_2" xmlns="http://www.w3.org/2000/svg" viewBox="0 0 682.89 160.51"><g id="Calque_1-2"><g><path d="m80.26,160.51c-2.04,0-4.09-.08-6.15-.24-21.36-1.65-40.84-11.59-54.84-27.99C5.28,115.89-1.47,95.11.27,73.77c1.75-21.48,11.77-40.96,28.24-54.85C44.97,5.03,65.86-1.58,87.32.32l.64.06c4.54.44,8.74,2.76,11.52,6.38,2.79,3.63,3.96,8.3,3.21,12.82l-.07.45c-1.42,8.53-9.32,14.58-18.02,13.77-.39-.04-.79-.07-1.19-.1-12.07-.82-23.85,3.06-33.18,10.92-9.33,7.87-15.15,18.83-16.38,30.86-1.28,12.53,2.42,24.78,10.44,34.48,8.02,9.71,19.33,15.66,31.87,16.77,14.78,1.3,28.95-4.29,38.87-15.35,1.24-1.39,1.79-3.17,1.55-5.03-.24-1.86-1.28-3.52-2.85-4.55-2.63-1.73-6.14-1.31-8.17.96-1.49,1.68-3.17,3.22-4.99,4.58-5.99,4.5-13.13,6.7-20.23,6.7-9.3,0-18.55-3.75-25.13-11.01-6.26-6.9-9.36-15.81-8.73-25.09.63-9.28,4.91-17.68,12.04-23.65,5.97-5,13.54-7.81,21.31-7.9,3.1-.03,5.63,2.44,5.67,5.53.04,3.09-2.44,5.63-5.53,5.67-5.28.06-10.21,1.89-14.26,5.29-4.77,4-7.63,9.62-8.06,15.83-.42,6.21,1.65,12.17,5.85,16.8,7.78,8.57,21.11,9.83,30.35,2.89,1.22-.92,2.35-1.96,3.36-3.08,5.69-6.39,15.44-7.62,22.68-2.87,4.3,2.82,7.14,7.36,7.8,12.46.66,5.07-.92,10.15-4.32,13.95-11.12,12.4-26.56,19.26-42.96,19.26-1.74,0-3.48-.08-5.23-.23-15.55-1.37-29.58-8.76-39.52-20.79-9.94-12.03-14.53-27.21-12.94-42.75,1.53-14.94,8.74-28.53,20.31-38.28,11.57-9.75,26.19-14.56,41.16-13.53.49.03.98.07,1.47.12,2.92.27,5.46-1.64,5.93-4.45l.07-.45c.25-1.49-.12-2.97-1.04-4.17-.91-1.19-2.23-1.92-3.71-2.06l-.55-.05c-18.47-1.63-36.44,4.05-50.61,16.01-14.17,11.95-22.8,28.71-24.3,47.2-1.49,18.35,4.32,36.22,16.36,50.34,12.05,14.12,28.81,22.68,47.18,24.1,19.68,1.52,39.11-5.5,53.32-19.24,2.22-2.15,5.77-2.09,7.92.13,2.15,2.22,2.09,5.77-.13,7.92-15.03,14.54-35.09,22.59-55.82,22.59Z" fill="#fff"/><g><path d="m194.99,111.86c-6.01,0-11.43-1.25-16.27-3.76-4.84-2.5-8.66-6.13-11.45-10.89-2.8-4.76-4.19-10.47-4.19-17.15v-1.75c0-6.67,1.4-12.39,4.19-17.15,2.79-4.76,6.61-8.39,11.45-10.89,4.84-2.5,10.26-3.76,16.27-3.76s10.99,1.04,15.21,3.13c4.21,2.09,7.61,4.94,10.2,8.57,2.59,3.63,4.26,7.7,5.01,12.2l-13.89,2.88c-.33-2.59-1.13-4.94-2.38-7.07-1.25-2.13-3.03-3.82-5.32-5.07-2.3-1.25-5.11-1.88-8.45-1.88s-6.49.73-9.2,2.19c-2.71,1.46-4.84,3.65-6.38,6.57-1.54,2.92-2.32,6.43-2.32,10.51v1.25c0,4.09.77,7.57,2.32,10.45,1.54,2.88,3.67,5.07,6.38,6.57,2.71,1.5,5.78,2.25,9.2,2.25,5.09,0,8.95-1.31,11.58-3.94,2.63-2.63,4.28-6.03,4.94-10.2l13.89,3.25c-1,4.34-2.8,8.3-5.38,11.89-2.59,3.59-5.99,6.45-10.2,8.57-4.21,2.13-9.28,3.19-15.21,3.19Z" fill="#fff"/><path d="m265.59,111.86c-6.18,0-11.62-1.31-16.33-3.94-4.72-2.63-8.39-6.34-11.01-11.14-2.63-4.8-3.94-10.41-3.94-16.84v-1.5c0-6.51,1.29-12.14,3.88-16.9,2.59-4.76,6.22-8.45,10.89-11.08,4.67-2.63,10.05-3.94,16.15-3.94s11.27,1.31,15.77,3.94c4.51,2.63,8.01,6.32,10.51,11.08,2.5,4.76,3.76,10.31,3.76,16.65v5.13h-46.44c.17,4.84,1.88,8.72,5.13,11.64,3.25,2.92,7.26,4.38,12.02,4.38s8.14-1.02,10.39-3.07c2.25-2.04,3.96-4.36,5.13-6.95l11.89,6.13c-1.17,2.25-2.86,4.65-5.07,7.2-2.21,2.55-5.15,4.72-8.82,6.51-3.67,1.79-8.3,2.69-13.89,2.69Zm-16.65-39.43h31.67c-.33-4.09-1.9-7.34-4.69-9.76-2.8-2.42-6.41-3.63-10.83-3.63s-8.26,1.21-11.01,3.63c-2.75,2.42-4.46,5.68-5.13,9.76Z" fill="#fff"/><path d="m307.52,110.1v-61.83h14.14v8.64h2.13c1.08-2.34,3.05-4.55,5.88-6.63,2.84-2.08,7.13-3.13,12.89-3.13,4.76,0,8.97,1.09,12.64,3.25,3.67,2.17,6.53,5.18,8.57,9.01,2.04,3.84,3.07,8.39,3.07,13.64v37.05h-14.39v-35.92c0-5.01-1.23-8.74-3.69-11.2-2.46-2.46-5.95-3.69-10.45-3.69-5.09,0-9.1,1.69-12.02,5.07-2.92,3.38-4.38,8.2-4.38,14.46v31.29h-14.39Z" fill="#fff"/><path d="m403.77,110.1c-4.01,0-7.2-1.19-9.58-3.57-2.38-2.38-3.57-5.61-3.57-9.7v-36.67h-16.15v-11.89h16.15v-19.9h14.39v19.9h17.77v11.89h-17.77v34.3c0,2.5,1.17,3.75,3.5,3.75h12.39v11.89h-17.15Z" fill="#fff"/><path d="m434.94,110.1v-61.83h14.14v7.13h2.13c.92-2.59,2.46-4.46,4.63-5.63,2.17-1.17,4.76-1.75,7.76-1.75h7.51v12.77h-7.76c-4.17,0-7.55,1.11-10.14,3.32-2.59,2.21-3.88,5.61-3.88,10.2v35.8h-14.39Z" fill="#fff"/><path d="m507.41,111.86c-6.18,0-11.62-1.31-16.33-3.94-4.72-2.63-8.39-6.34-11.01-11.14-2.63-4.8-3.94-10.41-3.94-16.84v-1.5c0-6.51,1.29-12.14,3.88-16.9,2.59-4.76,6.22-8.45,10.89-11.08,4.67-2.63,10.05-3.94,16.15-3.94s11.27,1.31,15.77,3.94c4.51,2.63,8.01,6.32,10.51,11.08,2.5,4.76,3.76,10.31,3.76,16.65v5.13h-46.44c.17,4.84,1.88,8.72,5.13,11.64,3.25,2.92,7.26,4.38,12.02,4.38s8.14-1.02,10.39-3.07c2.25-2.04,3.96-4.36,5.13-6.95l11.89,6.13c-1.17,2.25-2.86,4.65-5.07,7.2-2.21,2.55-5.15,4.72-8.82,6.51-3.67,1.79-8.3,2.69-13.89,2.69Zm-16.65-39.43h31.67c-.33-4.09-1.9-7.34-4.69-9.76-2.8-2.42-6.41-3.63-10.83-3.63s-8.26,1.21-11.01,3.63c-2.75,2.42-4.46,5.68-5.13,9.76Z" fill="#fff"/><path d="m578.63,111.86c-6.18,0-11.7-1.27-16.58-3.82-4.88-2.54-8.72-6.17-11.52-10.89-2.8-4.71-4.19-10.37-4.19-16.96v-2c0-6.59,1.4-12.27,4.19-17.02,2.79-4.76,6.63-8.39,11.52-10.89,4.88-2.5,10.41-3.76,16.58-3.76s11.68,1.25,16.52,3.76c4.84,2.5,8.66,6.13,11.45,10.89,2.79,4.76,4.19,10.43,4.19,17.02v2c0,6.59-1.4,12.25-4.19,16.96-2.8,4.72-6.61,8.35-11.45,10.89-4.84,2.54-10.35,3.82-16.52,3.82Zm0-12.77c5.26,0,9.55-1.69,12.89-5.07,3.34-3.38,5.01-8.11,5.01-14.21v-1.25c0-6.09-1.67-10.83-5.01-14.21-3.34-3.38-7.64-5.07-12.89-5.07s-9.56,1.69-12.89,5.07c-3.34,3.38-5.01,8.12-5.01,14.21v1.25c0,6.09,1.67,10.83,5.01,14.21,3.34,3.38,7.64,5.07,12.89,5.07Z" fill="#fff"/><path d="m623.56,110.1v-61.83h14.14v8.64h2.13c1.08-2.34,3.05-4.55,5.88-6.63,2.84-2.08,7.13-3.13,12.89-3.13,4.76,0,8.97,1.09,12.64,3.25,3.67,2.17,6.53,5.18,8.57,9.01,2.04,3.84,3.07,8.39,3.07,13.64v37.05h-14.39v-35.92c0-5.01-1.23-8.74-3.69-11.2-2.46-2.46-5.95-3.69-10.45-3.69-5.09,0-9.1,1.69-12.02,5.07-2.92,3.38-4.38,8.2-4.38,14.46v31.29h-14.39Z" fill="#fff"/></g></g></g></svg>