<svg width="28" height="28" viewBox="0 0 28 28" fill="none" xmlns="http://www.w3.org/2000/svg">
<mask id="path-1-inside-1_1455_8846" fill="white">
<path d="M18.0751 15.1777C17.943 16.1027 16.3333 16.8354 14.3393 16.8354C12.3454 16.8354 10.7958 16.1267 10.6156 15.2378C10.6156 15.3099 10.5796 15.3819 10.5796 15.454C10.5796 16.6912 12.2613 17.7003 14.3393 17.7003C16.4174 17.7003 18.0991 16.6912 18.0991 15.454C18.0991 15.3699 18.0751 15.2738 18.0511 15.1897L18.0751 15.1777Z"></path>
</mask>
<path d="M18.0751 15.1777L19.857 15.4323L20.3428 12.0314L17.2701 13.5678L18.0751 15.1777ZM10.6156 15.2378L12.3797 14.8802L8.81563 15.2378H10.6156ZM18.0511 15.1897L17.2461 13.5798L15.9099 14.2479L16.3203 15.6842L18.0511 15.1897ZM18.0751 15.1777L16.2932 14.9232C16.311 14.7983 16.3508 14.7016 16.3864 14.6376C16.4207 14.5762 16.4491 14.5483 16.4492 14.5482C16.4494 14.548 16.4301 14.5668 16.3812 14.5986C16.3329 14.6299 16.2638 14.6686 16.1706 14.7102C15.7777 14.8859 15.1364 15.0354 14.3393 15.0354V16.8354V18.6354C15.5363 18.6354 16.6968 18.4185 17.6402 17.9966C18.4667 17.627 19.6551 16.8452 19.857 15.4323L18.0751 15.1777ZM14.3393 16.8354V15.0354C13.537 15.0354 12.9058 14.8901 12.5186 14.7208C12.3255 14.6363 12.2445 14.5685 12.232 14.5567C12.2199 14.5452 12.3324 14.6465 12.3797 14.8802L10.6156 15.2378L8.8515 15.5954C9.11997 16.9198 10.2485 17.6572 11.076 18.0191C12.0071 18.4263 13.1477 18.6354 14.3393 18.6354V16.8354ZM10.6156 15.2378H8.81563C8.81563 15.1087 8.83155 15.0096 8.84083 14.9601C8.84565 14.9344 8.84997 14.9156 8.85172 14.9081C8.85314 14.902 8.85415 14.8981 8.85135 14.9093C8.84965 14.9162 8.84414 14.9381 8.83848 14.9622C8.83251 14.9876 8.82426 15.0245 8.81605 15.0682C8.80002 15.1537 8.77959 15.2889 8.77959 15.454H10.5796H12.3796C12.3796 15.5831 12.3637 15.6822 12.3544 15.7317C12.3496 15.7574 12.3452 15.7762 12.3435 15.7837C12.3421 15.7898 12.3411 15.7937 12.3439 15.7825C12.3456 15.7756 12.3511 15.7537 12.3567 15.7296C12.3627 15.7042 12.371 15.6673 12.3792 15.6236C12.3952 15.5381 12.4156 15.4029 12.4156 15.2378H10.6156ZM10.5796 15.454H8.77959C8.77959 16.9572 9.79031 18.008 10.7561 18.5858C11.7598 19.1862 13.0306 19.5003 14.3393 19.5003V17.7003V15.9003C13.57 15.9003 12.9609 15.7098 12.6043 15.4964C12.2097 15.2604 12.3796 15.188 12.3796 15.454H10.5796ZM14.3393 17.7003V19.5003C15.6481 19.5003 16.9189 19.1862 17.9226 18.5858C18.8884 18.008 19.8991 16.9572 19.8991 15.454H18.0991H16.2991C16.2991 15.188 16.469 15.2604 16.0744 15.4964C15.7178 15.7098 15.1087 15.9003 14.3393 15.9003V17.7003ZM18.0991 15.454H19.8991C19.8991 15.0909 19.805 14.7763 19.7818 14.6952L18.0511 15.1897L16.3203 15.6842C16.3273 15.7088 16.3241 15.7 16.319 15.6749C16.3162 15.6607 16.3116 15.6353 16.3075 15.6011C16.3035 15.5674 16.2991 15.5171 16.2991 15.454H18.0991ZM18.0511 15.1897L18.856 16.7997L18.8801 16.7877L18.0751 15.1777L17.2701 13.5678L17.2461 13.5798L18.0511 15.1897Z" fill="white" mask="url(#path-1-inside-1_1455_8846)"></path>
<mask id="path-3-inside-2_1455_8846" fill="white">
<path d="M10.1665 18.6932L7.59 23.1559C7.35449 23.5639 7.49425 24.0855 7.90216 24.321L7.91257 24.327C8.32048 24.5625 8.84207 24.4227 9.07758 24.0148L11.6541 19.552C11.8896 19.1441 11.7499 18.6225 11.342 18.387L11.3315 18.381C10.9236 18.1455 10.402 18.2852 10.1665 18.6932Z"></path>
</mask>
<path d="M7.59 23.1559L9.14883 24.0559L11.7254 19.5932L10.1665 18.6932L8.6077 17.7931L6.03116 22.2559L7.59 23.1559ZM10.1665 18.6932L11.7254 19.5932C11.4638 20.0462 10.8846 20.2014 10.4316 19.9398L11.3315 18.381L12.2315 16.8221C10.9627 16.0896 9.34025 16.5243 8.6077 17.7931L10.1665 18.6932ZM11.3315 18.381L10.4316 19.9398L10.442 19.9459L11.342 18.387L12.2419 16.8282L12.2315 16.8221L11.3315 18.381ZM11.342 18.387L10.442 19.9459C9.98895 19.6843 9.83373 19.105 10.0953 18.652L11.6541 19.552L13.213 20.452C13.9455 19.1832 13.5108 17.5607 12.2419 16.8282L11.342 18.387ZM11.6541 19.552L10.0953 18.652L7.51874 23.1148L9.07758 24.0148L10.6364 24.9148L13.213 20.452L11.6541 19.552ZM9.07758 24.0148L7.51874 23.1148C7.78028 22.6618 8.35955 22.5066 8.81255 22.7681L7.91257 24.327L7.01258 25.8858C8.28141 26.6184 9.90386 26.1837 10.6364 24.9148L9.07758 24.0148ZM7.91257 24.327L8.81255 22.7681L8.80215 22.7621L7.90216 24.321L7.00217 25.8798L7.01258 25.8858L7.91257 24.327ZM7.90216 24.321L8.80215 22.7621C9.25517 23.0237 9.41038 23.6029 9.14883 24.0559L7.59 23.1559L6.03116 22.2559C5.2986 23.5248 5.73334 25.1472 7.00217 25.8798L7.90216 24.321Z" fill="white" mask="url(#path-3-inside-2_1455_8846)"></path>
<mask id="path-5-inside-3_1455_8846" fill="white">
<path d="M15.0837 19.862C15.0837 19.4043 14.7126 19.0332 14.2549 19.0332C13.7971 19.0332 13.426 19.4043 13.426 19.862V25.1713C13.426 25.6291 13.7971 26.0002 14.2549 26.0002C14.7126 26.0002 15.0837 25.6291 15.0837 25.1713V19.862Z"></path>
</mask>
<path d="M14.2549 19.0332V20.8332C13.7185 20.8332 13.2837 20.3984 13.2837 19.862H15.0837H16.8837C16.8837 18.4102 15.7067 17.2332 14.2549 17.2332V19.0332ZM15.0837 19.862H13.2837V25.1713H15.0837H16.8837V19.862H15.0837ZM15.0837 25.1713H13.2837C13.2837 24.635 13.7185 24.2002 14.2549 24.2002V26.0002V27.8002C15.7067 27.8002 16.8837 26.6232 16.8837 25.1713H15.0837ZM14.2549 26.0002V24.2002C14.7912 24.2002 15.226 24.635 15.226 25.1713H13.426H11.626C11.626 26.6232 12.803 27.8002 14.2549 27.8002V26.0002ZM13.426 25.1713H15.226V19.862H13.426H11.626V25.1713H13.426ZM13.426 19.862H15.226C15.226 20.3984 14.7912 20.8332 14.2549 20.8332V19.0332V17.2332C12.803 17.2332 11.626 18.4102 11.626 19.862H13.426Z" fill="white" mask="url(#path-5-inside-3_1455_8846)"></path>
<mask id="path-7-inside-4_1455_8846" fill="white">
<path d="M17.383 18.3762L17.3726 18.3822C16.9647 18.6177 16.8249 19.1393 17.0605 19.5472L19.637 24.01C19.8725 24.4179 20.3941 24.5576 20.802 24.3221L20.8124 24.3161C21.2203 24.0806 21.3601 23.559 21.1246 23.1511L18.548 18.6883C18.3125 18.2804 17.7909 18.1406 17.383 18.3762Z"></path>
</mask>
<path d="M17.3726 18.3822L18.2726 19.941L18.283 19.935L17.383 18.3762L16.483 16.8173L16.4726 16.8233L17.3726 18.3822ZM17.383 18.3762L18.283 19.935C17.83 20.1966 17.2507 20.0413 16.9892 19.5883L18.548 18.6883L20.1069 17.7883C19.3743 16.5195 17.7519 16.0847 16.483 16.8173L17.383 18.3762ZM18.548 18.6883L16.9892 19.5883L19.5657 24.0511L21.1246 23.1511L22.6834 22.2511L20.1069 17.7883L18.548 18.6883ZM21.1246 23.1511L19.5657 24.0511C19.3042 23.5981 19.4594 23.0188 19.9124 22.7573L20.8124 24.3161L21.7124 25.875C22.9812 25.1424 23.416 23.5199 22.6834 22.2511L21.1246 23.1511ZM20.8124 24.3161L19.9124 22.7573L19.902 22.7633L20.802 24.3221L21.702 25.881L21.7124 25.875L20.8124 24.3161ZM20.802 24.3221L19.902 22.7633C20.355 22.5017 20.9343 22.6569 21.1958 23.11L19.637 24.01L18.0782 24.91C18.8107 26.1788 20.4332 26.6136 21.702 25.881L20.802 24.3221ZM19.637 24.01L21.1958 23.11L18.6193 18.6472L17.0605 19.5472L15.5016 20.4472L18.0782 24.91L19.637 24.01ZM17.0605 19.5472L18.6193 18.6472C18.8808 19.1002 18.7256 19.6795 18.2726 19.941L17.3726 18.3822L16.4726 16.8233C15.2038 17.5559 14.7691 19.1784 15.5016 20.4472L17.0605 19.5472Z" fill="white" mask="url(#path-7-inside-4_1455_8846)"></path>
<path d="M21.6194 2.90039C22.8574 2.90072 24.3859 4.19823 24.9241 6.42773V6.42871C25.2639 7.83077 25.0729 9.18665 24.5256 10.0654C24.2541 10.4878 23.8615 10.9091 23.2825 11.04C23.149 11.0662 23.0211 11.082 22.9045 11.082C21.6665 11.082 20.1371 9.78442 19.5989 7.55469V7.55371L19.5413 7.29102C19.2834 5.97905 19.4862 4.73198 20.0032 3.9082L20.0061 3.90332C20.2551 3.50107 20.6559 3.07264 21.2395 2.94043C21.3734 2.91411 21.5025 2.90039 21.6194 2.90039Z" stroke="white" stroke-width="1.8"></path>
<path d="M14.5464 12.7178C14.5493 12.7152 14.5517 12.7122 14.5542 12.71C14.5585 12.7062 14.5628 12.7027 14.5669 12.6992C14.5604 12.7047 14.5538 12.7111 14.5464 12.7178ZM17.2407 4.04883C16.8037 5.29343 16.6747 6.75068 17.0249 8.20996L17.0337 8.24707L17.0464 8.28418C17.5938 9.9265 18.3231 11.0492 19.0659 11.8135L15.1157 12.4756L15.0874 12.4805L15.0581 12.4873C15.0518 12.4888 15.046 12.4899 15.0405 12.4912C15.0171 12.494 14.9987 12.4965 14.9897 12.498L14.9263 12.5107C14.388 12.637 13.7451 12.4664 13.1206 11.9189C12.498 11.3731 11.9599 10.4982 11.7095 9.41309C11.4587 8.32623 11.557 7.30722 11.8755 6.54688C12.1943 5.78597 12.6972 5.34708 13.2466 5.21875L13.313 5.20312L13.3765 5.17773C13.3969 5.16955 13.4121 5.16318 13.4204 5.16016L17.2407 4.04883ZM14.9897 12.502H14.9927C14.9934 12.5018 14.9944 12.5012 14.9956 12.501C14.9934 12.5015 14.9914 12.5016 14.9897 12.502Z" stroke="white" stroke-width="1.8"></path>
<path d="M9.15576 7.61914C9.09348 8.37864 9.14914 9.16703 9.32959 9.94922L9.33057 9.95215C9.51943 10.7604 9.82446 11.5039 10.2183 12.1592L7.9126 12.4082L7.84912 12.415L7.78857 12.4307C7.61083 12.4756 7.341 12.4363 7.02295 12.1494C6.7058 11.8634 6.40843 11.3776 6.26904 10.7432C6.12969 10.1087 6.19149 9.52491 6.36279 9.10547C6.53617 8.68095 6.77858 8.50555 6.96924 8.45996L7.02881 8.44629L7.08545 8.42383L9.15576 7.61914Z" stroke="white" stroke-width="1.8"></path>
<path d="M3.77295 10.1494C3.77722 10.511 3.81767 10.8822 3.89795 11.2568L3.89893 11.2617C3.98502 11.652 4.11187 12.0261 4.27197 12.377L3.73779 12.4316L3.68213 12.4365L3.62744 12.4492C3.62194 12.4504 3.53451 12.4678 3.37354 12.3213C3.21046 12.1729 3.03754 11.9029 2.95264 11.5293C2.8689 11.1606 2.90736 10.8366 2.99463 10.6211C3.08309 10.4028 3.18124 10.3717 3.19092 10.3691L3.24854 10.3545L3.30322 10.333L3.77295 10.1494Z" stroke="white" stroke-width="1.8"></path>
</svg>
